<?xml version="1.0" encoding="UTF-8" standalone="no"?>
<!DOCTYPE svg PUBLIC "-//W3C//DTD SVG 1.1//EN"
 "http://www.w3.org/Graphics/SVG/1.1/DTD/svg11.dtd">
<!-- Generated by graphviz version 2.38.0 (20140413.2041)
 -->
<!-- Title: %3 Pages: 1 -->
<svg width="994pt" height="260pt"
 viewBox="0.00 0.00 994.00 260.00" xmlns="http://www.w3.org/2000/svg" xmlns:xlink="http://www.w3.org/1999/xlink">
<g id="graph0" class="graph" transform="scale(1 1) rotate(0) translate(4 256)">
<title>%3</title>
<polygon fill="white" stroke="none" points="-4,4 -4,-256 990,-256 990,4 -4,4"/>
<!-- [root] aws_instance.webserver -->
<g id="node1" class="node"><title>[root] aws_instance.webserver</title>
<polygon fill="none" stroke="black" points="986,-108 834,-108 834,-72 986,-72 986,-108"/>
<text text-anchor="middle" x="910" y="-86.3" font-family="Times New Roman,serif" font-size="14.00">aws_instance.webserver</text>
</g>
<!-- [root] provider.aws -->
<g id="node6" class="node"><title>[root] provider.aws</title>
<polygon fill="none" stroke="black" points="493,-36 411.39,-18 493,-3.55271e-015 574.61,-18 493,-36"/>
<text text-anchor="middle" x="493" y="-14.3" font-family="Times New Roman,serif" font-size="14.00">provider.aws</text>
</g>
<!-- [root] aws_instance.webserver&#45;&gt;[root] provider.aws -->
<g id="edge1" class="edge"><title>[root] aws_instance.webserver&#45;&gt;[root] provider.aws</title>
<path fill="none" stroke="black" d="M833.571,-73.5677C830.679,-73.0303 827.814,-72.5059 825,-72 728.481,-54.6508 615.651,-37.2456 549.494,-27.3307"/>
<polygon fill="black" stroke="black" points="549.694,-23.8218 539.286,-25.8049 548.659,-30.7449 549.694,-23.8218"/>
</g>
<!-- [root] aws_security_group.mysg -->
<g id="node2" class="node"><title>[root] aws_security_group.mysg</title>
<polygon fill="none" stroke="black" points="164,-108 0,-108 0,-72 164,-72 164,-108"/>
<text text-anchor="middle" x="82" y="-86.3" font-family="Times New Roman,serif" font-size="14.00">aws_security_group.mysg</text>
</g>
<!-- [root] aws_security_group.mysg&#45;&gt;[root] provider.aws -->
<g id="edge2" class="edge"><title>[root] aws_security_group.mysg&#45;&gt;[root] provider.aws</title>
<path fill="none" stroke="black" d="M164.326,-73.542C167.253,-73.0175 170.151,-72.502 173,-72 265.853,-55.6393 374.128,-38.0087 437.935,-27.7675"/>
<polygon fill="black" stroke="black" points="438.848,-31.1659 448.168,-26.1273 437.74,-24.2541 438.848,-31.1659"/>
</g>
<!-- [root] aws_security_group_rule.mysg (orphan) -->
<g id="node3" class="node"><title>[root] aws_security_group_rule.mysg (orphan)</title>
<polygon fill="none" stroke="black" points="373.5,-108 182.5,-108 182.5,-72 373.5,-72 373.5,-108"/>
<text text-anchor="middle" x="278" y="-86.3" font-family="Times New Roman,serif" font-size="14.00">aws_security_group_rule.mysg</text>
</g>
<!-- [root] aws_security_group_rule.mysg (orphan)&#45;&gt;[root] provider.aws -->
<g id="edge3" class="edge"><title>[root] aws_security_group_rule.mysg (orphan)&#45;&gt;[root] provider.aws</title>
<path fill="none" stroke="black" d="M330.32,-71.9656C367.766,-59.7738 417.468,-43.5918 452.039,-32.3362"/>
<polygon fill="black" stroke="black" points="453.382,-35.5796 461.808,-29.1557 451.215,-28.9235 453.382,-35.5796"/>
</g>
<!-- [root] aws_security_group_rule.mysg&#45;1 (orphan) -->
<g id="node4" class="node"><title>[root] aws_security_group_rule.mysg&#45;1 (orphan)</title>
<polygon fill="none" stroke="black" points="594.5,-108 391.5,-108 391.5,-72 594.5,-72 594.5,-108"/>
<text text-anchor="middle" x="493" y="-86.3" font-family="Times New Roman,serif" font-size="14.00">aws_security_group_rule.mysg&#45;1</text>
</g>
<!-- [root] aws_security_group_rule.mysg&#45;1 (orphan)&#45;&gt;[root] provider.aws -->
<g id="edge4" class="edge"><title>[root] aws_security_group_rule.mysg&#45;1 (orphan)&#45;&gt;[root] provider.aws</title>
<path fill="none" stroke="black" d="M493,-71.6966C493,-63.9827 493,-54.7125 493,-46.1124"/>
<polygon fill="black" stroke="black" points="496.5,-46.1043 493,-36.1043 489.5,-46.1044 496.5,-46.1043"/>
</g>
<!-- [root] aws_security_group_rule.mysg&#45;2 (orphan) -->
<g id="node5" class="node"><title>[root] aws_security_group_rule.mysg&#45;2 (orphan)</title>
<polygon fill="none" stroke="black" points="815.5,-108 612.5,-108 612.5,-72 815.5,-72 815.5,-108"/>
<text text-anchor="middle" x="714" y="-86.3" font-family="Times New Roman,serif" font-size="14.00">aws_security_group_rule.mysg&#45;2</text>
</g>
<!-- [root] aws_security_group_rule.mysg&#45;2 (orphan)&#45;&gt;[root] provider.aws -->
<g id="edge5" class="edge"><title>[root] aws_security_group_rule.mysg&#45;2 (orphan)&#45;&gt;[root] provider.aws</title>
<path fill="none" stroke="black" d="M660.22,-71.9656C621.447,-59.6845 569.891,-43.3545 534.326,-32.0897"/>
<polygon fill="black" stroke="black" points="535.333,-28.7373 524.743,-29.0543 533.219,-35.4106 535.333,-28.7373"/>
</g>
<!-- [root] meta.count&#45;boundary (EachMode fixup) -->
<g id="node7" class="node"><title>[root] meta.count&#45;boundary (EachMode fixup)</title>
<ellipse fill="none" stroke="black" cx="342" cy="-162" rx="180.868" ry="18"/>
<text text-anchor="middle" x="342" y="-158.3" font-family="Times New Roman,serif" font-size="14.00">[root] meta.count&#45;boundary (EachMode fixup)</text>
</g>
<!-- [root] meta.count&#45;boundary (EachMode fixup)&#45;&gt;[root] aws_instance.webserver -->
<g id="edge6" class="edge"><title>[root] meta.count&#45;boundary (EachMode fixup)&#45;&gt;[root] aws_instance.webserver</title>
<path fill="none" stroke="black" d="M464.73,-148.778C579.28,-137.155 743.129,-119.923 823.318,-108.16"/>
<polygon fill="black" stroke="black" points="824.234,-111.562 833.601,-106.61 823.191,-104.64 824.234,-111.562"/>
</g>
<!-- [root] meta.count&#45;boundary (EachMode fixup)&#45;&gt;[root] aws_security_group.mysg -->
<g id="edge7" class="edge"><title>[root] meta.count&#45;boundary (EachMode fixup)&#45;&gt;[root] aws_security_group.mysg</title>
<path fill="none" stroke="black" d="M282.351,-144.941C244.539,-134.761 195.365,-121.521 155.197,-110.707"/>
<polygon fill="black" stroke="black" points="156.022,-107.305 145.456,-108.084 154.203,-114.064 156.022,-107.305"/>
</g>
<!-- [root] meta.count&#45;boundary (EachMode fixup)&#45;&gt;[root] aws_security_group_rule.mysg (orphan) -->
<g id="edge8" class="edge"><title>[root] meta.count&#45;boundary (EachMode fixup)&#45;&gt;[root] aws_security_group_rule.mysg (orphan)</title>
<path fill="none" stroke="black" d="M326.507,-144.055C318.762,-135.583 309.239,-125.168 300.688,-115.815"/>
<polygon fill="black" stroke="black" points="303.125,-113.294 293.795,-108.275 297.959,-118.017 303.125,-113.294"/>
</g>
<!-- [root] meta.count&#45;boundary (EachMode fixup)&#45;&gt;[root] aws_security_group_rule.mysg&#45;1 (orphan) -->
<g id="edge9" class="edge"><title>[root] meta.count&#45;boundary (EachMode fixup)&#45;&gt;[root] aws_security_group_rule.mysg&#45;1 (orphan)</title>
<path fill="none" stroke="black" d="M378.168,-144.233C398.781,-134.678 424.821,-122.606 446.89,-112.375"/>
<polygon fill="black" stroke="black" points="448.477,-115.497 456.078,-108.116 445.533,-109.147 448.477,-115.497"/>
</g>
<!-- [root] meta.count&#45;boundary (EachMode fixup)&#45;&gt;[root] aws_security_group_rule.mysg&#45;2 (orphan) -->
<g id="edge10" class="edge"><title>[root] meta.count&#45;boundary (EachMode fixup)&#45;&gt;[root] aws_security_group_rule.mysg&#45;2 (orphan)</title>
<path fill="none" stroke="black" d="M422.718,-145.811C478.789,-135.26 553.891,-121.128 613.792,-109.856"/>
<polygon fill="black" stroke="black" points="614.468,-113.291 623.649,-108.002 613.174,-106.411 614.468,-113.291"/>
</g>
<!-- [root] provider.aws (close) -->
<g id="node8" class="node"><title>[root] provider.aws (close)</title>
<ellipse fill="none" stroke="black" cx="649" cy="-162" rx="108.581" ry="18"/>
<text text-anchor="middle" x="649" y="-158.3" font-family="Times New Roman,serif" font-size="14.00">[root] provider.aws (close)</text>
</g>
<!-- [root] provider.aws (close)&#45;&gt;[root] aws_instance.webserver -->
<g id="edge11" class="edge"><title>[root] provider.aws (close)&#45;&gt;[root] aws_instance.webserver</title>
<path fill="none" stroke="black" d="M703.396,-146.411C742.066,-136.04 794.44,-121.993 836.779,-110.638"/>
<polygon fill="black" stroke="black" points="837.727,-114.007 846.479,-108.036 835.913,-107.246 837.727,-114.007"/>
</g>
<!-- [root] provider.aws (close)&#45;&gt;[root] aws_security_group.mysg -->
<g id="edge12" class="edge"><title>[root] provider.aws (close)&#45;&gt;[root] aws_security_group.mysg</title>
<path fill="none" stroke="black" d="M571.97,-149.312C558.654,-147.434 544.937,-145.588 532,-144 376.102,-124.867 333.47,-130.497 174.433,-108.137"/>
<polygon fill="black" stroke="black" points="174.681,-104.638 164.288,-106.696 173.696,-111.568 174.681,-104.638"/>
</g>
<!-- [root] provider.aws (close)&#45;&gt;[root] aws_security_group_rule.mysg (orphan) -->
<g id="edge13" class="edge"><title>[root] provider.aws (close)&#45;&gt;[root] aws_security_group_rule.mysg (orphan)</title>
<path fill="none" stroke="black" d="M580.087,-147.998C523.398,-137.301 442.278,-121.996 378.372,-109.938"/>
<polygon fill="black" stroke="black" points="378.745,-106.447 368.269,-108.032 377.447,-113.325 378.745,-106.447"/>
</g>
<!-- [root] provider.aws (close)&#45;&gt;[root] aws_security_group_rule.mysg&#45;1 (orphan) -->
<g id="edge14" class="edge"><title>[root] provider.aws (close)&#45;&gt;[root] aws_security_group_rule.mysg&#45;1 (orphan)</title>
<path fill="none" stroke="black" d="M613.21,-144.941C591.627,-135.256 563.872,-122.802 540.471,-112.301"/>
<polygon fill="black" stroke="black" points="541.63,-108.985 531.074,-108.084 538.765,-115.372 541.63,-108.985"/>
</g>
<!-- [root] provider.aws (close)&#45;&gt;[root] aws_security_group_rule.mysg&#45;2 (orphan) -->
<g id="edge15" class="edge"><title>[root] provider.aws (close)&#45;&gt;[root] aws_security_group_rule.mysg&#45;2 (orphan)</title>
<path fill="none" stroke="black" d="M664.735,-144.055C672.601,-135.583 682.273,-125.168 690.957,-115.815"/>
<polygon fill="black" stroke="black" points="693.719,-117.985 697.959,-108.275 688.589,-113.222 693.719,-117.985"/>
</g>
<!-- [root] root -->
<g id="node9" class="node"><title>[root] root</title>
<ellipse fill="none" stroke="black" cx="495" cy="-234" rx="49.2915" ry="18"/>
<text text-anchor="middle" x="495" y="-230.3" font-family="Times New Roman,serif" font-size="14.00">[root] root</text>
</g>
<!-- [root] root&#45;&gt;[root] meta.count&#45;boundary (EachMode fixup) -->
<g id="edge16" class="edge"><title>[root] root&#45;&gt;[root] meta.count&#45;boundary (EachMode fixup)</title>
<path fill="none" stroke="black" d="M465.5,-219.503C443.478,-209.428 412.973,-195.471 387.791,-183.95"/>
<polygon fill="black" stroke="black" points="388.978,-180.644 378.429,-179.667 386.066,-187.01 388.978,-180.644"/>
</g>
<!-- [root] root&#45;&gt;[root] provider.aws (close) -->
<g id="edge17" class="edge"><title>[root] root&#45;&gt;[root] provider.aws (close)</title>
<path fill="none" stroke="black" d="M524.693,-219.503C547.345,-209.207 578.916,-194.856 604.572,-183.194"/>
<polygon fill="black" stroke="black" points="606.074,-186.356 613.73,-179.032 603.178,-179.984 606.074,-186.356"/>
</g>
</g>
</svg>
